<svg xmlns="http://www.w3.org/2000/svg" width="40" height="40" viewBox="0 0 40 40" role="img">
<title>RobustYaml</title>
<defs>
<linearGradient id="ryTag" gradientUnits="userSpaceOnUse" x1="0" y1="0" x2="40" y2="0"><stop offset="0" stop-color="#D4537E"/><stop offset="1" stop-color="#7F77DD"/></linearGradient>
<linearGradient id="ryGlow" gradientUnits="userSpaceOnUse" x1="0" y1="0" x2="40" y2="40"><stop offset="0" stop-color="#7F77DD"/><stop offset=".5" stop-color="#AFA9EC" stop-opacity="0"/><stop offset="1" stop-color="#D4537E"/></linearGradient>
</defs>
<rect width="40" height="40" rx="9" fill="url(#ryGlow)" opacity=".3"/>
<g fill="#D4537E">
<rect x="3" y="4" width="5" height="3" rx="1.5"/>
<rect x="8" y="11" width="5" height="3" rx="1.5"/>
<rect x="13" y="18" width="5" height="3" rx="1.5"/>
</g>
<g fill="#7F77DD">
<rect x="11" y="4" width="25" height="3" rx="1.5"/>
<rect x="16" y="11" width="20" height="3" rx="1.5"/>
<rect x="21" y="18" width="15" height="3" rx="1.5"/>
</g>
<path d="M2 28.5A3 3 0 0 1 5 25.5h29l4 4V35a3 3 0 0 1-3 3H5a3 3 0 0 1-3-3Z" fill="url(#ryTag)"/>
<g transform="translate(5.21 26.95) scale(.4729)" fill="#fff"><path d="M4.9 11.6V8.6H9.5Q10.9 8.6 11.7 7.9Q12.5 7.2 12.5 5.9Q12.5 4.7 11.7 3.9Q11.0 3.2 9.5 3.2H4.9V0.0H9.9Q11.8 0.0 13.3 0.8Q14.7 1.5 15.6 2.8Q16.4 4.1 16.4 5.8Q16.4 7.6 15.5 8.9Q14.7 10.2 13.3 10.9Q11.8 11.6 9.8 11.6ZM2.0 20.0V0.0H5.9V20.0ZM13.0 20.0 6.4 11.4 9.9 10.2 17.7 20.0Z M25.9 20.3Q23.9 20.3 22.2 19.3Q20.5 18.4 19.6 16.8Q18.6 15.1 18.6 13.1Q18.6 11.1 19.6 9.5Q20.5 7.9 22.2 6.9Q23.9 6.0 25.9 6.0Q28.0 6.0 29.7 6.9Q31.3 7.8 32.3 9.5Q33.3 11.1 33.3 13.1Q33.3 15.1 32.3 16.8Q31.4 18.4 29.7 19.3Q28.0 20.3 25.9 20.3ZM25.9 16.8Q27.0 16.8 27.8 16.3Q28.6 15.9 29.0 15.0Q29.5 14.2 29.5 13.1Q29.5 12.0 29.0 11.2Q28.6 10.4 27.8 9.9Q27.0 9.4 25.9 9.4Q24.9 9.4 24.1 9.9Q23.3 10.4 22.8 11.2Q22.4 12.0 22.4 13.1Q22.4 14.2 22.8 15.0Q23.3 15.9 24.1 16.3Q24.9 16.8 25.9 16.8Z M38.2 12.3 30.5 0.0H35.0L41.0 9.9H38.4L44.4 0.0H48.8L41.0 12.3ZM37.7 20.0V10.2H41.6V20.0Z M52.8 20.3Q50.9 20.3 49.4 19.3Q47.9 18.4 47.1 16.8Q46.2 15.2 46.2 13.2Q46.2 11.1 47.1 9.5Q47.9 7.9 49.4 6.9Q50.9 6.0 52.8 6.0Q54.3 6.0 55.4 6.6Q56.6 7.2 57.3 8.2Q58.0 9.3 58.1 10.7V15.6Q58.0 17.0 57.3 18.0Q56.6 19.1 55.5 19.7Q54.3 20.3 52.8 20.3ZM53.5 16.8Q55.1 16.8 56.0 15.8Q57.0 14.8 57.0 13.1Q57.0 12.0 56.5 11.2Q56.1 10.4 55.3 9.9Q54.6 9.4 53.5 9.4Q52.5 9.4 51.7 9.9Q50.9 10.4 50.5 11.2Q50.0 12.0 50.0 13.1Q50.0 14.2 50.5 15.1Q50.9 15.9 51.7 16.4Q52.5 16.8 53.5 16.8ZM56.8 20.0V16.3L57.4 13.0L56.8 9.6V6.3H60.5V20.0Z"/></g>
</svg>
